<svg version="1.1" id="Layer_1" xmlns="http://www.w3.org/2000/svg" xmlns:xlink="http://www.w3.org/1999/xlink" x="0px" y="0px"
	 width="100%" viewBox="0 0 531 73" enable-background="new 0 0 531 73" xml:space="preserve">
<path fill="#D86B29" opacity="1.000000" stroke="none" 
	d="
M1.000000,64.000000 
	C1.000000,46.311325 1.000000,28.622646 1.328724,10.347952 
	C3.366138,5.342658 7.050581,3.030062 11.000000,1.000000 
	C175.355347,1.000000 339.710693,1.000000 504.666351,1.337764 
	C511.729645,3.791199 514.988831,8.066438 514.995117,14.519593 
	C515.008423,28.276411 514.556580,42.052563 515.155762,55.783249 
	C515.551086,64.842476 512.272888,70.712448 504.000000,74.000000 
	C340.311310,74.000000 176.622650,74.000000 12.333223,73.662094 
	C6.341446,72.303574 3.454165,68.401054 1.000000,64.000000 
M32.500160,70.179314 
	C187.462433,70.179291 342.424683,70.179703 497.386963,70.178345 
	C508.628326,70.178253 511.835938,66.920067 511.837830,55.519394 
	C511.839813,43.522312 511.839233,31.525232 511.838043,19.528151 
	C511.836853,7.537670 508.814453,4.534756 496.743469,4.534727 
	C337.615509,4.534342 178.487564,4.534459 19.359606,4.534679 
	C18.026602,4.534681 16.692038,4.496362 15.360854,4.546462 
	C8.379426,4.809211 4.250964,8.856967 4.197173,15.926205 
	C4.088142,30.255217 4.074521,44.586460 4.203808,58.915142 
	C4.267245,65.945862 8.497853,70.023346 15.504583,70.155174 
	C20.834757,70.255463 26.168280,70.177895 32.500160,70.179314 
z"/>
<path fill="#FFFFFF" opacity="1.000000" stroke="none" 
	d="
M504.468658,74.000000 
	C512.272888,70.712448 515.551086,64.842476 515.155762,55.783249 
	C514.556580,42.052563 515.008423,28.276411 514.995117,14.519593 
	C514.988831,8.066438 511.729645,3.791199 505.133331,1.337764 
	C513.969116,1.000000 522.938293,1.000000 531.953735,1.000000 
	C531.953735,25.218933 531.953735,49.437973 531.953735,74.000000 
	C522.981995,74.000000 513.959656,74.000000 504.468658,74.000000 
z"/>
<path fill="#FFFFFF" opacity="1.000000" stroke="none" 
	d="
M1.000000,64.486565 
	C3.454165,68.401054 6.341446,72.303574 11.866238,73.662094 
	C8.417958,74.000000 4.835916,74.000000 1.000000,74.000000 
	C1.000000,70.993645 1.000000,67.983391 1.000000,64.486565 
z"/>
<path fill="#FFFFFF" opacity="1.000000" stroke="none" 
	d="
M10.513435,1.000000 
	C7.050581,3.030062 3.366138,5.342658 1.328724,9.880966 
	C1.000000,7.076724 1.000000,4.153447 1.000000,1.000000 
	C4.006850,1.000000 7.016860,1.000000 10.513435,1.000000 
z"/>
<path fill="#15274A" opacity="1.000000" stroke="none" 
	d="
M32.000237,70.179390 
	C26.168280,70.177895 20.834757,70.255463 15.504583,70.155174 
	C8.497853,70.023346 4.267245,65.945862 4.203808,58.915142 
	C4.074521,44.586460 4.088142,30.255217 4.197173,15.926205 
	C4.250964,8.856967 8.379426,4.809211 15.360854,4.546462 
	C16.692038,4.496362 18.026602,4.534681 19.359606,4.534679 
	C178.487564,4.534459 337.615509,4.534342 496.743469,4.534727 
	C508.814453,4.534756 511.836853,7.537670 511.838043,19.528151 
	C511.839233,31.525232 511.839813,43.522312 511.837830,55.519394 
	C511.835938,66.920067 508.628326,70.178253 497.386963,70.178345 
	C342.424683,70.179703 187.462433,70.179291 32.000237,70.179390 
M166.056610,31.423634 
	C165.641586,29.299391 165.390594,27.124445 164.755066,25.068363 
	C164.316071,23.648096 163.345657,22.392088 162.612717,21.062677 
	C161.742828,22.311962 160.534149,23.446096 160.063416,24.831055 
	C158.303299,30.009438 156.784760,35.269936 155.175629,40.499641 
	C152.480087,34.710484 150.818604,29.131948 148.998154,23.605780 
	C148.685211,22.655867 147.695709,21.928839 147.018738,21.098845 
	C146.376450,21.723404 145.310303,22.258265 145.156265,22.986155 
	C143.233704,32.071072 141.443436,41.183983 139.614563,50.312897 
	C143.336823,51.794804 144.895996,50.812820 145.342819,47.218342 
	C145.798218,43.554859 146.770935,39.955688 147.517151,36.328358 
	C147.826920,36.324059 148.136688,36.319759 148.446472,36.315464 
	C150.315430,41.262756 152.184387,46.210052 154.053329,51.157345 
	C154.517624,51.124947 154.981903,51.092552 155.446182,51.060154 
	C157.417587,45.960121 159.388992,40.860088 161.810226,34.596340 
	C163.049652,40.842331 164.039536,45.830841 165.068985,51.018703 
	C166.943237,50.903522 168.366104,50.816082 170.038010,50.713337 
	C168.706970,44.303165 167.455688,38.277100 166.056610,31.423634 
M239.159058,32.158344 
	C236.374344,32.158344 233.589630,32.158344 230.638245,32.158344 
	C230.638245,29.757175 230.638245,28.050873 230.638245,25.849022 
	C235.260040,25.849022 239.520447,25.849022 244.153915,25.849022 
	C243.944626,23.938139 243.794067,22.563545 243.657333,21.315144 
	C237.267670,21.315144 231.343445,21.315144 225.401459,21.315144 
	C225.401459,31.336514 225.401459,41.046608 225.401459,50.724270 
	C231.740601,50.724270 237.683044,50.724270 243.991058,50.724270 
	C243.900940,49.064312 243.826431,47.692028 243.723907,45.803780 
	C239.112061,45.803780 234.868134,45.803780 230.551086,45.803780 
	C230.551086,42.674366 230.551086,40.087147 230.551086,37.205463 
	C233.757202,37.060944 236.685730,36.928936 239.884979,36.784725 
	C239.884979,35.248833 239.884979,33.978016 239.159058,32.158344 
M185.767609,21.285801 
	C182.343155,21.285801 178.918686,21.285801 175.336609,21.285801 
	C175.336609,31.264921 175.336609,40.854496 175.336609,50.710930 
	C176.973663,50.710930 178.360336,50.710930 180.019974,50.710930 
	C180.203659,47.074974 180.375244,43.678989 180.542053,40.377163 
	C191.240067,39.265366 194.514389,37.000904 194.935989,30.720627 
	C195.280457,25.589590 192.865219,22.937416 185.767609,21.285801 
M262.271942,25.775074 
	C262.271942,34.060173 262.271942,42.345272 262.271942,51.024754 
	C265.765686,51.024754 268.730988,51.059658 271.695129,51.016235 
	C275.728577,50.957150 279.500336,50.045486 280.949493,45.771328 
	C282.345490,41.653881 281.544312,37.903160 277.470917,35.471733 
	C281.852325,30.334044 281.995636,24.858566 277.326538,23.412781 
	C273.024078,22.080528 268.200745,22.368298 263.597137,22.179422 
	C263.192932,22.162838 262.716553,23.906044 262.271942,25.775074 
M312.264435,44.368645 
	C312.264435,46.478855 312.264435,48.589069 312.264435,50.849628 
	C319.627289,51.122101 326.919220,52.346958 330.917725,44.970512 
	C334.112091,39.077564 334.069763,32.622913 330.201324,26.948465 
	C325.821564,20.524086 319.054535,21.907427 312.264465,22.228632 
	C312.264465,29.489931 312.264465,36.442825 312.264435,44.368645 
M47.283310,31.564617 
	C47.283817,37.054054 47.150272,42.549461 47.394104,48.028069 
	C47.444946,49.170471 48.890858,50.250782 49.693867,51.359707 
	C50.178680,51.088463 50.663490,50.817223 51.148304,50.545979 
	C51.148304,46.457607 51.148304,42.369236 51.148304,38.297043 
	C56.147457,38.297043 60.725311,38.297043 65.523315,38.297043 
	C65.523315,41.064613 65.517616,43.553806 65.524559,46.042965 
	C65.537521,50.692234 65.540573,50.692226 68.796867,50.373997 
	C68.796867,40.954525 68.796867,31.543379 68.796867,22.132233 
	C68.279640,22.020697 67.762413,21.909163 67.245186,21.797626 
	C63.666115,25.259016 66.696877,30.487585 65.136673,34.615150 
	C60.506092,34.615150 55.804710,34.615150 50.892414,34.615150 
	C50.892414,30.281527 50.892414,26.314995 50.892414,22.348465 
	C50.491310,22.078365 50.090202,21.808264 49.689098,21.538162 
	C48.888672,22.558575 47.619469,23.485334 47.392715,24.620354 
	C47.009174,26.540190 47.284817,28.591715 47.283310,31.564617 
M107.762428,44.700226 
	C107.103737,45.963329 106.445045,47.226433 105.383850,49.261383 
	C108.546181,49.934605 111.053566,50.840050 113.590111,50.930882 
	C118.837875,51.118793 122.902679,48.420567 123.603317,44.439739 
	C124.459892,39.572895 121.854515,36.628807 117.684425,34.644073 
	C115.894821,33.792324 114.055901,32.866978 112.593521,31.574417 
	C111.776222,30.852026 111.108223,29.109571 111.425743,28.190485 
	C111.752319,27.245195 113.348785,26.184677 114.408470,26.164440 
	C116.475548,26.124958 118.555809,26.775827 121.242645,27.248497 
	C121.345772,25.682228 121.778389,22.933908 121.492973,22.857201 
	C118.534706,22.062130 115.235107,20.795265 112.486244,21.482634 
	C110.035797,22.095379 107.004509,24.677156 106.354782,26.987625 
	C105.709953,29.280657 107.388046,32.495079 108.700645,34.957146 
	C109.355797,36.186001 111.505020,36.579861 112.915718,37.452770 
	C115.460632,39.027504 119.870644,40.060390 117.753212,43.951988 
	C116.970932,45.389713 112.319923,44.733742 109.430115,44.996761 
	C109.125374,45.024498 108.798508,44.808983 107.762428,44.700226 
M341.120605,39.043152 
	C341.207031,36.552528 340.621460,33.765461 341.555237,31.648605 
	C342.646973,29.173647 344.670502,26.424463 347.004730,25.355797 
	C349.940918,24.011530 353.117371,25.128902 355.031616,28.492382 
	C355.595276,29.482748 357.245728,29.854565 359.222137,30.978405 
	C357.850342,24.423689 354.197388,22.261904 349.317352,22.045807 
	C344.419739,21.828926 339.803650,23.758440 338.909668,28.684336 
	C337.969482,33.864716 337.969879,39.607506 339.233612,44.688068 
	C340.547272,49.969337 346.857849,51.675457 352.974976,50.630798 
	C359.115295,49.582184 359.601196,45.665970 359.149475,40.803799 
	C359.045959,39.689728 359.134216,38.557838 359.134216,37.293049 
	C355.520721,37.293049 352.300537,37.293049 348.732300,37.293049 
	C349.643372,42.073742 353.748474,38.638302 356.191467,41.483299 
	C355.470856,43.071323 354.892914,46.688404 353.404114,47.113205 
	C350.722046,47.878487 347.126434,47.441387 344.620270,46.141670 
	C342.862854,45.230263 342.280609,42.052891 341.120605,39.043152 
M490.587799,29.863243 
	C490.022186,22.705315 483.260468,20.493126 470.270874,22.734158 
	C470.270874,31.297222 470.189056,39.915478 470.382324,48.527565 
	C470.404541,49.517731 471.960480,50.473480 472.805298,51.445190 
	C473.213257,51.154827 473.621185,50.864464 474.029144,50.574104 
	C474.029144,48.934204 474.029144,47.294308 474.029144,45.654408 
	C474.029144,43.881668 474.029144,42.108932 474.029144,40.390751 
	C489.040283,39.021572 489.587219,38.693214 490.587799,29.863243 
M445.264984,47.178467 
	C445.258575,49.536892 444.942902,52.227207 449.198242,50.275604 
	C449.198242,47.056923 449.198242,43.649727 449.198242,40.021057 
	C452.075165,40.021057 454.557861,40.194489 457.007904,39.985519 
	C462.365967,39.528526 465.463257,36.425705 465.704102,31.553534 
	C465.953156,26.515911 462.854095,22.661633 457.489044,22.112503 
	C453.599091,21.714354 449.635559,22.034777 445.264832,22.034777 
	C445.264832,30.400007 445.264832,38.321617 445.264984,47.178467 
M365.281464,46.281052 
	C365.358856,47.734543 365.436249,49.188034 365.533722,51.018295 
	C370.776794,51.018295 375.738678,51.087669 380.694977,50.951424 
	C381.541443,50.928154 382.363770,50.025650 383.197235,49.529335 
	C382.383270,49.013477 381.586792,48.087681 380.752380,48.052135 
	C376.974701,47.891212 373.186310,47.981758 369.261566,47.981758 
	C369.261566,44.148670 369.261566,40.754494 369.261566,37.018898 
	C372.293640,37.018898 375.101318,37.177128 377.875793,36.942535 
	C379.016602,36.846073 380.085846,35.903603 381.187653,35.345947 
	C380.149261,34.891018 379.131104,34.109440 378.068634,34.043762 
	C375.139465,33.862682 372.191803,33.981163 369.327637,33.981163 
	C369.327637,30.686686 369.327637,27.959539 369.327637,25.013981 
	C373.442932,25.013981 377.254242,25.087360 381.057587,24.945995 
	C381.738098,24.920702 382.385559,24.007175 383.048279,23.503763 
	C382.388428,22.997854 381.738770,22.069410 381.067139,22.053272 
	C375.957794,21.930500 370.844147,21.986040 365.281433,21.986040 
	C365.281433,30.088728 365.281433,37.704773 365.281464,46.281052 
M80.655823,51.018955 
	C83.818382,51.018890 86.987686,51.135201 90.139694,50.952820 
	C91.180374,50.892597 92.176453,50.061470 93.192924,49.582836 
	C92.231758,49.049015 91.290733,48.102757 90.305855,48.054680 
	C86.574043,47.872524 82.828033,47.981377 79.243301,47.981377 
	C79.243301,43.947868 79.243301,40.666798 79.243301,37.018612 
	C82.417870,37.018612 85.383575,37.151665 88.325264,36.944134 
	C89.312210,36.874504 90.237946,35.937225 91.191658,35.396530 
	C90.168747,34.924755 89.167473,34.112846 88.118797,34.046143 
	C85.186012,33.859581 82.233635,33.981205 79.309509,33.981205 
	C79.309509,30.721992 79.309509,27.995022 79.309509,25.018961 
	C82.234634,25.018961 84.875542,25.019781 87.516449,25.018782 
	C92.410965,25.016930 92.410965,25.016487 92.544273,22.211323 
	C86.948906,22.211323 81.359772,22.211323 75.551056,22.211323 
	C75.551056,31.833591 75.551056,41.224747 75.551056,50.819878 
	C77.108147,50.894474 78.407219,50.956707 80.655823,51.018955 
M425.867584,43.018616 
	C428.848511,43.018616 431.829437,43.018616 434.163086,43.018616 
	C437.485382,45.185825 435.114258,51.486103 441.436646,50.870178 
	C438.016449,41.772610 434.797333,33.070045 431.423370,24.427940 
	C431.039581,23.445005 429.892212,22.477030 428.887848,22.149561 
	C428.444580,22.005039 427.139343,23.349934 426.793579,24.239473 
	C423.396759,32.978771 420.119690,41.764614 416.808624,50.537239 
	C417.252380,50.872890 417.696136,51.208542 418.139893,51.544193 
	C419.181702,50.377022 420.279388,49.254292 421.251556,48.031746 
	C422.547546,46.402004 423.746002,44.694664 425.867584,43.018616 
M200.090622,38.487602 
	C200.090622,42.566738 200.090622,46.645874 200.090622,50.712326 
	C206.799377,50.712326 212.718674,50.712326 218.986526,50.712326 
	C218.864853,49.021877 218.765900,47.646843 218.629013,45.744995 
	C214.051788,45.744995 209.828140,45.744995 205.003616,45.744995 
	C205.003616,37.414555 205.005157,29.635384 204.989761,21.856255 
	C204.989517,21.732359 204.781570,21.608877 204.531937,21.330778 
	C203.281967,21.330778 201.905197,21.330778 200.090698,21.330778 
	C200.090698,26.916962 200.090698,32.204510 200.090622,38.487602 
M302.722290,35.375717 
	C302.722229,36.872391 302.740875,38.369335 302.718842,39.865685 
	C302.631317,45.807968 300.662018,48.106331 295.774353,47.994091 
	C291.243561,47.890053 289.338806,45.553497 289.287292,39.886433 
	C289.240448,34.731632 289.345612,29.574053 289.198425,24.422997 
	C289.175079,23.606794 288.173920,22.818531 287.624847,22.017345 
	C287.043121,22.778454 285.972778,23.529589 285.957001,24.302256 
	C285.831482,30.452072 285.666992,36.618679 285.993103,42.754700 
	C286.265289,47.876591 290.472900,51.055492 296.041260,51.003582 
	C301.601807,50.951748 305.775543,47.726154 306.045074,42.670513 
	C306.363342,36.700016 306.257294,30.701052 306.129395,24.718832 
	C306.109894,23.806805 304.980530,22.918503 304.364532,22.019218 
	C303.817657,22.990799 302.864716,23.935884 302.799286,24.938883 
	C302.593933,28.085171 302.722839,31.253267 302.722290,35.375717 
M393.546814,21.971636 
	C391.718018,21.971777 389.868500,21.807604 388.068237,22.034290 
	C387.005249,22.168137 386.020142,22.920776 385.000031,23.395138 
	C385.953033,23.939362 386.861511,24.822855 387.868591,24.955009 
	C389.783264,25.206263 391.754303,25.027811 394.127777,25.027811 
	C394.127777,33.873264 394.127777,42.281105 394.127777,50.535866 
	C398.043945,51.953857 397.924988,49.689430 397.912628,47.358685 
	C397.873383,39.957401 397.898132,32.555782 397.898132,26.364447 
	C401.067535,23.372940 405.409485,27.393600 407.643829,21.971636 
	C402.754150,21.971636 398.641571,21.971636 393.546814,21.971636 
M34.898422,34.530788 
	C34.898422,31.434839 34.898422,28.338888 34.898422,25.023602 
	C37.652927,25.023602 39.802563,25.141685 41.926167,24.958300 
	C42.650291,24.895765 43.308975,24.075346 43.997559,23.601217 
	C43.379745,23.059895 42.770542,22.060093 42.142784,22.048302 
	C35.993961,21.932825 29.841551,21.948538 23.691851,22.040281 
	C23.125895,22.048723 22.571627,22.840715 22.011930,23.268869 
	C22.586134,23.852901 23.123150,24.890114 23.741117,24.940825 
	C26.140245,25.137697 28.565109,25.020969 31.227518,25.020969 
	C31.227518,34.014172 31.227518,42.291901 31.227518,50.569630 
	C31.656118,50.845413 32.084717,51.121197 32.513317,51.396980 
	C33.307217,50.426411 34.725975,49.493103 34.786461,48.478798 
	C35.043301,44.171646 34.897285,39.840473 34.898422,34.530788 
M130.084656,25.722115 
	C130.084656,33.999825 130.084656,42.277538 130.084656,50.682320 
	C132.061905,50.682320 133.455490,50.682320 134.928574,50.682320 
	C134.928574,40.672962 134.928574,30.971693 134.928574,21.413296 
	C131.408737,20.382938 129.640442,21.181843 130.084656,25.722115 
z"/>
<path fill="#D86B29" opacity="1.000000" stroke="none" 
	d="
M166.130508,31.837334 
	C167.455688,38.277100 168.706970,44.303165 170.038010,50.713337 
	C168.366104,50.816082 166.943237,50.903522 165.068985,51.018703 
	C164.039536,45.830841 163.049652,40.842331 161.810226,34.596340 
	C159.388992,40.860088 157.417587,45.960121 155.446182,51.060154 
	C154.981903,51.092552 154.517624,51.124947 154.053329,51.157345 
	C152.184387,46.210052 150.315430,41.262756 148.446472,36.315464 
	C148.136688,36.319759 147.826920,36.324059 147.517151,36.328358 
	C146.770935,39.955688 145.798218,43.554859 145.342819,47.218342 
	C144.895996,50.812820 143.336823,51.794804 139.614563,50.312897 
	C141.443436,41.183983 143.233704,32.071072 145.156265,22.986155 
	C145.310303,22.258265 146.376450,21.723404 147.018738,21.098846 
	C147.695709,21.928839 148.685211,22.655867 148.998154,23.605780 
	C150.818604,29.131948 152.480087,34.710484 155.175629,40.499641 
	C156.784760,35.269936 158.303299,30.009438 160.063416,24.831055 
	C160.534149,23.446096 161.742828,22.311962 162.612717,21.062677 
	C163.345657,22.392088 164.316071,23.648096 164.755066,25.068363 
	C165.390594,27.124445 165.641586,29.299391 166.130508,31.837334 
z"/>
<path fill="#E06E26" opacity="1.000000" stroke="none" 
	d="
M239.522018,32.432770 
	C239.884979,33.978016 239.884979,35.248833 239.884979,36.784725 
	C236.685730,36.928936 233.757202,37.060944 230.551086,37.205463 
	C230.551086,40.087147 230.551086,42.674366 230.551086,45.803780 
	C234.868134,45.803780 239.112061,45.803780 243.723907,45.803780 
	C243.826431,47.692028 243.900940,49.064312 243.991058,50.724270 
	C237.683044,50.724270 231.740601,50.724270 225.401459,50.724270 
	C225.401459,41.046608 225.401459,31.336514 225.401459,21.315144 
	C231.343445,21.315144 237.267670,21.315144 243.657333,21.315144 
	C243.794067,22.563545 243.944626,23.938139 244.153915,25.849022 
	C239.520447,25.849022 235.260040,25.849022 230.638245,25.849022 
	C230.638245,28.050873 230.638245,29.757175 230.638245,32.158344 
	C233.589630,32.158344 236.374344,32.158344 239.522018,32.432770 
z"/>
<path fill="#DA6C28" opacity="1.000000" stroke="none" 
	d="
M186.174713,21.416321 
	C192.865219,22.937416 195.280457,25.589590 194.935989,30.720627 
	C194.514389,37.000904 191.240067,39.265366 180.542053,40.377163 
	C180.375244,43.678989 180.203659,47.074974 180.019974,50.710930 
	C178.360336,50.710930 176.973663,50.710930 175.336609,50.710930 
	C175.336609,40.854496 175.336609,31.264921 175.336609,21.285801 
	C178.918686,21.285801 182.343155,21.285801 186.174713,21.416321 
M181.692657,34.947903 
	C182.188004,34.970810 182.683578,35.017269 183.178680,35.012794 
	C186.378281,34.983883 189.589371,34.373928 189.585770,30.481894 
	C189.582123,26.524551 186.211975,26.132032 183.110870,26.006481 
	C182.326904,25.974743 181.532791,26.194229 180.062851,26.387953 
	C180.348465,29.248606 180.618591,31.954287 181.692657,34.947903 
z"/>
<path fill="#F2F1F4" opacity="1.000000" stroke="none" 
	d="
M262.272827,25.303474 
	C262.716553,23.906044 263.192932,22.162838 263.597137,22.179422 
	C268.200745,22.368298 273.024078,22.080528 277.326538,23.412781 
	C281.995636,24.858566 281.852325,30.334044 277.470917,35.471733 
	C281.544312,37.903160 282.345490,41.653881 280.949493,45.771328 
	C279.500336,50.045486 275.728577,50.957150 271.695129,51.016235 
	C268.730988,51.059658 265.765686,51.024754 262.271942,51.024754 
	C262.271942,42.345272 262.271942,34.060173 262.272827,25.303474 
M277.915863,42.461578 
	C276.707520,36.831146 274.434052,35.898918 266.322693,37.644081 
	C266.322693,41.054127 266.322693,44.435665 266.322693,48.192852 
	C270.747131,47.204166 276.335632,50.236019 277.915863,42.461578 
M275.914948,32.488148 
	C276.002106,30.502914 276.701447,27.044640 276.072174,26.783125 
	C273.077271,25.538427 269.720886,25.163393 266.300140,24.437927 
	C266.300140,28.287493 266.300140,31.025963 266.300140,34.396645 
	C269.519012,33.898640 272.383514,33.455456 275.914948,32.488148 
z"/>
<path fill="#F0EFF2" opacity="1.000000" stroke="none" 
	d="
M312.264465,43.882179 
	C312.264465,36.442825 312.264465,29.489931 312.264465,22.228632 
	C319.054535,21.907427 325.821564,20.524086 330.201324,26.948465 
	C334.069763,32.622913 334.112091,39.077564 330.917725,44.970512 
	C326.919220,52.346958 319.627289,51.122101 312.264435,50.849628 
	C312.264435,48.589069 312.264435,46.478855 312.264465,43.882179 
M317.506989,47.960712 
	C321.830505,48.223446 326.146057,47.985748 327.932709,43.217129 
	C329.846588,38.108864 330.249878,32.730900 326.960999,27.978348 
	C324.288422,24.116373 320.172211,24.878298 316.597260,25.222670 
	C316.597260,33.052582 316.597260,40.457249 317.506989,47.960712 
z"/>
<path fill="#F5F5F7" opacity="1.000000" stroke="none" 
	d="
M47.283314,31.076244 
	C47.284817,28.591715 47.009174,26.540190 47.392715,24.620354 
	C47.619469,23.485334 48.888672,22.558575 49.689098,21.538162 
	C50.090202,21.808264 50.491310,22.078365 50.892414,22.348465 
	C50.892414,26.314995 50.892414,30.281527 50.892414,34.615150 
	C55.804710,34.615150 60.506092,34.615150 65.136673,34.615150 
	C66.696877,30.487585 63.666115,25.259016 67.245186,21.797626 
	C67.762413,21.909163 68.279640,22.020697 68.796867,22.132233 
	C68.796867,31.543379 68.796867,40.954525 68.796867,50.373997 
	C65.540573,50.692226 65.537521,50.692234 65.524559,46.042965 
	C65.517616,43.553806 65.523315,41.064613 65.523315,38.297043 
	C60.725311,38.297043 56.147457,38.297043 51.148304,38.297043 
	C51.148304,42.369236 51.148304,46.457607 51.148304,50.545979 
	C50.663490,50.817223 50.178680,51.088463 49.693867,51.359707 
	C48.890858,50.250782 47.444946,49.170471 47.394104,48.028069 
	C47.150272,42.549461 47.283817,37.054054 47.283314,31.076244 
z"/>
<path fill="#D86B29" opacity="1.000000" stroke="none" 
	d="
M108.122162,44.703278 
	C108.798508,44.808983 109.125374,45.024498 109.430115,44.996761 
	C112.319923,44.733742 116.970932,45.389713 117.753212,43.951988 
	C119.870644,40.060390 115.460632,39.027504 112.915718,37.452770 
	C111.505020,36.579861 109.355797,36.186001 108.700645,34.957146 
	C107.388046,32.495079 105.709953,29.280657 106.354782,26.987625 
	C107.004509,24.677156 110.035797,22.095379 112.486244,21.482634 
	C115.235107,20.795265 118.534706,22.062130 121.492973,22.857201 
	C121.778389,22.933908 121.345772,25.682228 121.242645,27.248497 
	C118.555809,26.775827 116.475548,26.124958 114.408470,26.164440 
	C113.348785,26.184677 111.752319,27.245195 111.425743,28.190485 
	C111.108223,29.109571 111.776222,30.852026 112.593521,31.574417 
	C114.055901,32.866978 115.894821,33.792324 117.684425,34.644073 
	C121.854515,36.628807 124.459892,39.572895 123.603317,44.439739 
	C122.902679,48.420567 118.837875,51.118793 113.590111,50.930882 
	C111.053566,50.840050 108.546181,49.934605 105.383850,49.261383 
	C106.445045,47.226433 107.103737,45.963329 108.122162,44.703278 
z"/>
<path fill="#F7F7F9" opacity="1.000000" stroke="none" 
	d="
M341.147095,39.465309 
	C342.280609,42.052891 342.862854,45.230263 344.620270,46.141670 
	C347.126434,47.441387 350.722046,47.878487 353.404114,47.113205 
	C354.892914,46.688404 355.470856,43.071323 356.191467,41.483299 
	C353.748474,38.638302 349.643372,42.073742 348.732300,37.293049 
	C352.300537,37.293049 355.520721,37.293049 359.134216,37.293049 
	C359.134216,38.557838 359.045959,39.689728 359.149475,40.803799 
	C359.601196,45.665970 359.115295,49.582184 352.974976,50.630798 
	C346.857849,51.675457 340.547272,49.969337 339.233612,44.688068 
	C337.969879,39.607506 337.969482,33.864716 338.909668,28.684336 
	C339.803650,23.758440 344.419739,21.828926 349.317352,22.045807 
	C354.197388,22.261904 357.850342,24.423689 359.222137,30.978405 
	C357.245728,29.854565 355.595276,29.482748 355.031616,28.492382 
	C353.117371,25.128902 349.940918,24.011530 347.004730,25.355797 
	C344.670502,26.424463 342.646973,29.173647 341.555237,31.648605 
	C340.621460,33.765461 341.207031,36.552528 341.147095,39.465309 
z"/>
<path fill="#F0EFF3" opacity="1.000000" stroke="none" 
	d="
M490.649597,30.248188 
	C489.587219,38.693214 489.040283,39.021572 474.029144,40.390751 
	C474.029144,42.108932 474.029144,43.881668 474.029144,45.654408 
	C474.029144,47.294308 474.029144,48.934204 474.029144,50.574104 
	C473.621185,50.864464 473.213257,51.154827 472.805298,51.445190 
	C471.960480,50.473480 470.404541,49.517731 470.382324,48.527565 
	C470.189056,39.915478 470.270874,31.297222 470.270874,22.734158 
	C483.260468,20.493126 490.022186,22.705315 490.649597,30.248188 
M474.026245,31.470654 
	C474.026245,33.230587 474.026245,34.990520 474.026245,38.440895 
	C478.803741,36.785091 482.792542,35.852345 486.207123,33.910114 
	C487.085327,33.410595 486.956909,29.197020 485.902313,27.615788 
	C482.967743,23.215769 478.331421,25.400593 474.026245,25.235146 
	C474.026245,27.264589 474.026245,28.897354 474.026245,31.470654 
z"/>
<path fill="#F0EFF3" opacity="1.000000" stroke="none" 
	d="
M445.264893,46.710846 
	C445.264832,38.321617 445.264832,30.400007 445.264832,22.034777 
	C449.635559,22.034777 453.599091,21.714354 457.489044,22.112503 
	C462.854095,22.661633 465.953156,26.515911 465.704102,31.553534 
	C465.463257,36.425705 462.365967,39.528526 457.007904,39.985519 
	C454.557861,40.194489 452.075165,40.021057 449.198242,40.021057 
	C449.198242,43.649727 449.198242,47.056923 449.198242,50.275604 
	C444.942902,52.227207 445.258575,49.536892 445.264893,46.710846 
M449.033630,26.764624 
	C449.033630,30.034330 449.033630,33.304035 449.033630,36.937332 
	C452.020081,36.937332 454.901764,37.635723 457.130280,36.728920 
	C459.116760,35.920593 461.668823,33.311848 461.634399,31.543047 
	C461.592377,29.379839 459.540649,26.168413 457.581757,25.406963 
	C455.173126,24.470701 451.963196,25.595737 449.033630,26.764624 
z"/>
<path fill="#F4F4F6" opacity="1.000000" stroke="none" 
	d="
M365.281433,45.800934 
	C365.281433,37.704773 365.281433,30.088728 365.281433,21.986040 
	C370.844147,21.986040 375.957794,21.930500 381.067139,22.053272 
	C381.738770,22.069410 382.388428,22.997854 383.048279,23.503765 
	C382.385559,24.007175 381.738098,24.920702 381.057587,24.945995 
	C377.254242,25.087360 373.442932,25.013981 369.327637,25.013981 
	C369.327637,27.959539 369.327637,30.686686 369.327637,33.981163 
	C372.191803,33.981163 375.139465,33.862682 378.068634,34.043762 
	C379.131104,34.109440 380.149261,34.891018 381.187653,35.345951 
	C380.085846,35.903603 379.016602,36.846073 377.875793,36.942535 
	C375.101318,37.177128 372.293640,37.018898 369.261566,37.018898 
	C369.261566,40.754494 369.261566,44.148670 369.261566,47.981758 
	C373.186310,47.981758 376.974701,47.891212 380.752380,48.052135 
	C381.586792,48.087681 382.383270,49.013477 383.197235,49.529331 
	C382.363770,50.025650 381.541443,50.928154 380.694977,50.951424 
	C375.738678,51.087669 370.776794,51.018295 365.533722,51.018295 
	C365.436249,49.188034 365.358856,47.734543 365.281433,45.800934 
z"/>
<path fill="#F4F4F6" opacity="1.000000" stroke="none" 
	d="
M80.181061,51.018951 
	C78.407219,50.956707 77.108147,50.894474 75.551056,50.819878 
	C75.551056,41.224747 75.551056,31.833591 75.551056,22.211323 
	C81.359772,22.211323 86.948906,22.211323 92.544273,22.211323 
	C92.410965,25.016487 92.410965,25.016930 87.516449,25.018782 
	C84.875542,25.019781 82.234634,25.018961 79.309509,25.018961 
	C79.309509,27.995022 79.309509,30.721992 79.309509,33.981205 
	C82.233635,33.981205 85.186012,33.859581 88.118797,34.046143 
	C89.167473,34.112846 90.168747,34.924755 91.191658,35.396530 
	C90.237946,35.937225 89.312210,36.874504 88.325264,36.944134 
	C85.383575,37.151665 82.417870,37.018612 79.243301,37.018612 
	C79.243301,40.666798 79.243301,43.947868 79.243301,47.981377 
	C82.828033,47.981377 86.574043,47.872524 90.305855,48.054680 
	C91.290733,48.102757 92.231758,49.049015 93.192924,49.582832 
	C92.176453,50.061470 91.180374,50.892597 90.139694,50.952820 
	C86.987686,51.135201 83.818382,51.018890 80.181061,51.018951 
z"/>
<path fill="#F5F4F7" opacity="1.000000" stroke="none" 
	d="
M425.426941,43.019638 
	C423.746002,44.694664 422.547546,46.402004 421.251556,48.031746 
	C420.279388,49.254292 419.181702,50.377022 418.139893,51.544193 
	C417.696136,51.208542 417.252380,50.872890 416.808624,50.537239 
	C420.119690,41.764614 423.396759,32.978771 426.793579,24.239473 
	C427.139343,23.349934 428.444580,22.005039 428.887848,22.149561 
	C429.892212,22.477030 431.039581,23.445005 431.423370,24.427940 
	C434.797333,33.070045 438.016449,41.772610 441.436646,50.870178 
	C435.114258,51.486103 437.485382,45.185825 434.163086,43.018616 
	C431.829437,43.018616 428.848511,43.018616 425.426941,43.019638 
M424.819794,38.184448 
	C425.211700,38.786201 425.570343,39.879402 426.001007,39.908543 
	C428.468384,40.075493 430.952850,39.989716 433.948334,39.989716 
	C432.371460,35.689350 430.940399,31.786636 429.066528,26.676344 
	C427.423584,31.079504 426.237579,34.258022 424.819794,38.184448 
z"/>
<path fill="#DC6D28" opacity="1.000000" stroke="none" 
	d="
M200.090668,37.989830 
	C200.090698,32.204510 200.090698,26.916962 200.090698,21.330778 
	C201.905197,21.330778 203.281967,21.330778 204.531937,21.330778 
	C204.781570,21.608877 204.989517,21.732359 204.989761,21.856255 
	C205.005157,29.635384 205.003616,37.414555 205.003616,45.744995 
	C209.828140,45.744995 214.051788,45.744995 218.629013,45.744995 
	C218.765900,47.646843 218.864853,49.021877 218.986526,50.712326 
	C212.718674,50.712326 206.799377,50.712326 200.090622,50.712326 
	C200.090622,46.645874 200.090622,42.566738 200.090668,37.989830 
z"/>
<path fill="#FBFBFC" opacity="1.000000" stroke="none" 
	d="
M302.722290,34.894318 
	C302.722839,31.253267 302.593933,28.085171 302.799286,24.938883 
	C302.864716,23.935884 303.817657,22.990799 304.364532,22.019222 
	C304.980530,22.918503 306.109894,23.806805 306.129395,24.718832 
	C306.257294,30.701052 306.363342,36.700016 306.045074,42.670513 
	C305.775543,47.726154 301.601807,50.951748 296.041260,51.003582 
	C290.472900,51.055492 286.265289,47.876591 285.993103,42.754700 
	C285.666992,36.618679 285.831482,30.452072 285.957001,24.302256 
	C285.972778,23.529589 287.043121,22.778454 287.624847,22.017349 
	C288.173920,22.818531 289.175079,23.606794 289.198425,24.422997 
	C289.345612,29.574053 289.240448,34.731632 289.287292,39.886433 
	C289.338806,45.553497 291.243561,47.890053 295.774353,47.994091 
	C300.662018,48.106331 302.631317,45.807968 302.718842,39.865685 
	C302.740875,38.369335 302.722229,36.872391 302.722290,34.894318 
z"/>
<path fill="#F0F0F3" opacity="1.000000" stroke="none" 
	d="
M394.037903,21.971636 
	C398.641571,21.971636 402.754150,21.971636 407.643829,21.971636 
	C405.409485,27.393600 401.067535,23.372940 397.898132,26.364447 
	C397.898132,32.555782 397.873383,39.957401 397.912628,47.358685 
	C397.924988,49.689430 398.043945,51.953857 394.127777,50.535866 
	C394.127777,42.281105 394.127777,33.873264 394.127777,25.027811 
	C391.754303,25.027811 389.783264,25.206263 387.868591,24.955009 
	C386.861511,24.822855 385.953033,23.939362 385.000031,23.395138 
	C386.020142,22.920776 387.005249,22.168137 388.068237,22.034290 
	C389.868500,21.807604 391.718018,21.971777 394.037903,21.971636 
z"/>
<path fill="#F0F0F3" opacity="1.000000" stroke="none" 
	d="
M34.898422,35.024429 
	C34.897285,39.840473 35.043301,44.171646 34.786461,48.478798 
	C34.725975,49.493103 33.307217,50.426411 32.513317,51.396980 
	C32.084717,51.121197 31.656118,50.845413 31.227518,50.569630 
	C31.227518,42.291901 31.227518,34.014172 31.227518,25.020969 
	C28.565109,25.020969 26.140245,25.137697 23.741117,24.940825 
	C23.123150,24.890114 22.586134,23.852901 22.011930,23.268869 
	C22.571627,22.840715 23.125895,22.048723 23.691851,22.040281 
	C29.841551,21.948538 35.993961,21.932825 42.142784,22.048302 
	C42.770542,22.060093 43.379745,23.059895 43.997559,23.601217 
	C43.308975,24.075346 42.650291,24.895765 41.926167,24.958300 
	C39.802563,25.141685 37.652927,25.023602 34.898422,25.023602 
	C34.898422,28.338888 34.898422,31.434839 34.898422,35.024429 
z"/>
<path fill="#D96C29" opacity="1.000000" stroke="none" 
	d="
M130.085129,25.251400 
	C129.640442,21.181843 131.408737,20.382938 134.928574,21.413296 
	C134.928574,30.971693 134.928574,40.672962 134.928574,50.682320 
	C133.455490,50.682320 132.061905,50.682320 130.084656,50.682320 
	C130.084656,42.277538 130.084656,33.999825 130.085129,25.251400 
z"/>
<path fill="#222B49" opacity="1.000000" stroke="none" 
	d="
M181.290695,34.803932 
	C180.618591,31.954287 180.348465,29.248606 180.062851,26.387953 
	C181.532791,26.194229 182.326904,25.974743 183.110870,26.006481 
	C186.211975,26.132032 189.582123,26.524551 189.585770,30.481894 
	C189.589371,34.373928 186.378281,34.983883 183.178680,35.012794 
	C182.683578,35.017269 182.188004,34.970810 181.290695,34.803932 
z"/>
<path fill="#16294C" opacity="1.000000" stroke="none" 
	d="
M277.901489,42.862171 
	C276.335632,50.236019 270.747131,47.204166 266.322693,48.192852 
	C266.322693,44.435665 266.322693,41.054127 266.322693,37.644081 
	C274.434052,35.898918 276.707520,36.831146 277.901489,42.862171 
z"/>
<path fill="#15284C" opacity="1.000000" stroke="none" 
	d="
M275.581482,32.750210 
	C272.383514,33.455456 269.519012,33.898640 266.300140,34.396645 
	C266.300140,31.025963 266.300140,28.287493 266.300140,24.437927 
	C269.720886,25.163393 273.077271,25.538427 276.072174,26.783125 
	C276.701447,27.044640 276.002106,30.502914 275.581482,32.750210 
z"/>
<path fill="#15284B" opacity="1.000000" stroke="none" 
	d="
M317.052124,47.911316 
	C316.597260,40.457249 316.597260,33.052582 316.597260,25.222670 
	C320.172211,24.878298 324.288422,24.116373 326.960999,27.978348 
	C330.249878,32.730900 329.846588,38.108864 327.932709,43.217129 
	C326.146057,47.985748 321.830505,48.223446 317.052124,47.911316 
z"/>
<path fill="#15284C" opacity="1.000000" stroke="none" 
	d="
M474.026245,31.000387 
	C474.026245,28.897354 474.026245,27.264589 474.026245,25.235146 
	C478.331421,25.400593 482.967743,23.215769 485.902313,27.615788 
	C486.956909,29.197020 487.085327,33.410595 486.207123,33.910114 
	C482.792542,35.852345 478.803741,36.785091 474.026245,38.440895 
	C474.026245,34.990520 474.026245,33.230587 474.026245,31.000387 
z"/>
<path fill="#15284C" opacity="1.000000" stroke="none" 
	d="
M449.066650,26.297209 
	C451.963196,25.595737 455.173126,24.470701 457.581757,25.406963 
	C459.540649,26.168413 461.592377,29.379839 461.634399,31.543047 
	C461.668823,33.311848 459.116760,35.920593 457.130280,36.728920 
	C454.901764,37.635723 452.020081,36.937332 449.033630,36.937332 
	C449.033630,33.304035 449.033630,30.034330 449.066650,26.297209 
z"/>
<path fill="#203052" opacity="1.000000" stroke="none" 
	d="
M424.935669,37.810493 
	C426.237579,34.258022 427.423584,31.079504 429.066528,26.676344 
	C430.940399,31.786636 432.371460,35.689350 433.948334,39.989716 
	C430.952850,39.989716 428.468384,40.075493 426.001007,39.908543 
	C425.570343,39.879402 425.211700,38.786201 424.935669,37.810493 
z"/>
</svg>